<?xml version="1.0" encoding="utf-8"?>
<!-- Svg Vector Icons : http://www.onlinewebfonts.com/icon -->
<!DOCTYPE svg PUBLIC "-//W3C//DTD SVG 1.1//EN" "http://www.w3.org/Graphics/SVG/1.1/DTD/svg11.dtd">
<svg version="1.1" xmlns="http://www.w3.org/2000/svg" xmlns:xlink="http://www.w3.org/1999/xlink" width="70" height="70" viewBox="0 0 256 256" enable-background="new 0 0 256 256" xml:space="preserve">
<metadata> Svg Vector Icons : http://www.onlinewebfonts.com/icon </metadata>
<g><g><path fill="#000000" d="M246,100.2c-0.2-3.6-2.6-5.9-5.5-5.2l-20.9,4.8c-2.2,0.5-3.9,2.6-4.6,5.1c-9.2-13.2-25.3-34.6-36.8-39.4c-1.6-0.6-11.5-3.9-50.3-3.9c-38.8,0-48.7,3.3-50.3,3.9C66.3,70.2,50.1,91.6,41,104.8c-0.7-2.5-2.4-4.6-4.6-5.1l-20.9-4.8c-2.9-0.6-5.3,1.7-5.5,5.2c-0.2,3.6,2,7,4.8,7.6l18.5,4.2c-6.5,4.8-10.6,12.5-10.6,21.2l2.6,45.6c0,8.7,7.1,15.7,15.7,15.7h9.5c8.7,0,15.7-7.1,15.7-15.7l-0.3-3.3h124l-0.3,3.3c0,8.7,7.1,15.7,15.7,15.7h9.5c8.7,0,15.7-7.1,15.7-15.7l2.6-45.6c0-8.7-4.2-16.3-10.6-21.2l18.5-4.2C244,107.1,246.2,103.7,246,100.2z M82.1,76.2c0.9-0.3,10.4-3.1,45.9-3.1c35.4,0,45,2.8,45.9,3.1c6.9,3,18.7,17.2,28.3,30.7H53.7C63.4,93.3,75.2,79.1,82.1,76.2z M150.2,167.7h-44.3c-2,0-3.7-1.7-3.7-3.7c0-2,1.7-3.7,3.7-3.7h44.3c2,0,3.7,1.7,3.7,3.7C153.9,166,152.2,167.7,150.2,167.7z M186.3,148c0,0-7.4-4.3-16.3-5.3H81.6c-9,1-16.4,5.3-16.4,5.3C44.6,153.3,39,136.4,39,136.4h173.4C212.4,136.4,206.8,153.3,186.3,148z"/><g></g><g></g><g></g><g></g><g></g><g></g><g></g><g></g><g></g><g></g><g></g><g></g><g></g><g></g><g></g></g></g>
</svg>